<mxfile host="app.diagrams.net" modified="2023-10-13T01:27:55.642Z" agent="Mozilla/5.0 (Macintosh; Intel Mac OS X 10_15_7) AppleWebKit/537.36 (KHTML, like Gecko) Chrome/117.0.0.0 Safari/537.36" version="22.0.4" etag="Lpqo2wU3gFnUWvG0eoOv" type="github">
  <diagram name="第 1 页" id="y_jcnXmTONYK-yU5nYE2">
    <mxGraphModel>
      <root>
        <mxCell id="0" />
        <mxCell id="1" parent="0" />
      </root>
    </mxGraphModel>
  </diagram>
</mxfile>
